<svg width="21" height="57" viewBox="0 0 21 57" fill="none" xmlns="http://www.w3.org/2000/svg">
<rect width="20" height="57" transform="translate(0.5)" fill="white"/>
<path fill-rule="evenodd" clip-rule="evenodd" d="M3.68136 27.187L17.3187 27.187C17.9711 27.187 18.5 26.6555 18.5 25.9999C18.5 25.3442 17.9711 24.8127 17.3187 24.8127L3.68136 24.8127C3.02892 24.8127 2.5 25.3442 2.5 25.9999C2.5 26.6555 3.02892 27.187 3.68136 27.187ZM3.68136 32.5H17.3187C17.9711 32.5 18.5 31.9685 18.5 31.3128C18.5 30.6572 17.9711 30.1257 17.3187 30.1257L3.68136 30.1257C3.02892 30.1257 2.5 30.6572 2.5 31.3128C2.5 31.9685 3.02892 32.5 3.68136 32.5ZM17.3187 21.8743L3.68136 21.8743C3.02892 21.8743 2.5 21.3428 2.5 20.6872C2.5 20.0315 3.02892 19.5 3.68136 19.5H17.3187C17.9711 19.5 18.5 20.0315 18.5 20.6872C18.5 21.3428 17.9711 21.8743 17.3187 21.8743Z" fill="black"/>
</svg>
