<svg width="20" height="20" viewBox="0 0 20 20" fill="none" xmlns="http://www.w3.org/2000/svg">
<g clip-path="url(#clip0_340_4921)">
<path d="M13.8086 0.229004V3.88369H17.4629L13.8086 0.229004Z" fill="white"/>
<path d="M2.30762 19.6094C2.30762 19.713 2.34877 19.8123 2.42203 19.8856C2.49529 19.9588 2.59464 20 2.69824 20H17.3014C17.405 20 17.5043 19.9588 17.5776 19.8856C17.6508 19.8123 17.692 19.713 17.692 19.6094V16.916H2.30762V19.6094Z" fill="white"/>
<path d="M9.62891 13.2047H10.4105L10.0195 12.3333L9.62891 13.2047Z" fill="white"/>
<path d="M18.4422 9.36279H1.55859C1.45499 9.36279 1.35564 9.40395 1.28238 9.4772C1.20912 9.55046 1.16797 9.64982 1.16797 9.75342V15.7421C1.16797 15.8457 1.20912 15.945 1.28238 16.0183C1.35564 16.0916 1.45499 16.1327 1.55859 16.1327H18.4422C18.5458 16.1327 18.6451 16.0916 18.7184 16.0183C18.7917 15.945 18.8328 15.8457 18.8328 15.7421V9.75342C18.8328 9.64982 18.7917 9.55046 18.7184 9.4772C18.6451 9.40395 18.5458 9.36279 18.4422 9.36279ZM8.34141 14.2655C8.27385 14.3212 8.18872 14.3511 8.10117 14.3499C8.03982 14.3502 7.97933 14.3354 7.925 14.3069C7.86815 14.2761 7.81983 14.2317 7.78438 14.1776L7.27656 13.4354C7.24641 13.3896 7.20719 13.3504 7.16133 13.3202C7.1182 13.2948 7.06881 13.2819 7.01875 13.2831H6.76484V13.9843C6.76736 14.0316 6.76036 14.079 6.74426 14.1236C6.72816 14.1683 6.70328 14.2092 6.67109 14.244C6.63698 14.277 6.59644 14.3025 6.55202 14.319C6.50759 14.3356 6.46022 14.3427 6.41289 14.3401C6.36523 14.3438 6.31734 14.3372 6.2725 14.3206C6.22767 14.304 6.18696 14.2779 6.15318 14.2441C6.11939 14.2103 6.09334 14.1695 6.07681 14.1247C6.06028 14.0798 6.05367 14.0319 6.05742 13.9843V11.8913C6.05231 11.8465 6.05739 11.801 6.07227 11.7584C6.08715 11.7158 6.11145 11.6771 6.14336 11.6452C6.17527 11.6133 6.21398 11.589 6.25659 11.5741C6.29919 11.5592 6.34461 11.5542 6.38945 11.5593H7.3707C7.70378 11.5593 7.95456 11.6315 8.12305 11.7761C8.29154 11.9206 8.37552 12.1297 8.375 12.4034C8.38067 12.5945 8.31993 12.7817 8.20312 12.9331C8.07975 13.0829 7.90857 13.1857 7.71836 13.2241C7.79882 13.2352 7.87567 13.2646 7.94297 13.3101C8.01719 13.3651 8.08141 13.4325 8.13281 13.5093L8.375 13.8573C8.41766 13.9153 8.44213 13.9846 8.44531 14.0565C8.44565 14.0971 8.43642 14.1372 8.41836 14.1735C8.40031 14.2098 8.37394 14.2413 8.34141 14.2655ZM11.3469 14.2362C11.2819 14.2947 11.1975 14.3268 11.1102 14.3265C11.052 14.327 10.995 14.3106 10.9461 14.2792C10.8941 14.2449 10.8533 14.1959 10.8289 14.1386L10.6531 13.744H9.38672L9.20703 14.1386C9.18349 14.1946 9.1438 14.2424 9.09303 14.2759C9.04225 14.3093 8.98268 14.3269 8.92188 14.3265C8.83338 14.3265 8.74788 14.2945 8.68125 14.2362C8.64776 14.2105 8.62065 14.1773 8.60203 14.1394C8.5834 14.1015 8.57375 14.0597 8.57383 14.0175C8.57463 13.9673 8.58664 13.9179 8.60898 13.8729L9.64102 11.7546C9.67302 11.6862 9.7256 11.6295 9.79141 11.5925C9.85869 11.5553 9.93428 11.5359 10.0111 11.5359C10.088 11.5359 10.1636 11.5553 10.2309 11.5925C10.2976 11.6291 10.351 11.6858 10.3836 11.7546L11.4152 13.8729C11.4376 13.9179 11.4496 13.9673 11.4504 14.0175C11.4507 14.0594 11.4416 14.1008 11.4236 14.1387C11.4057 14.1766 11.3795 14.2099 11.3469 14.2362ZM14.0355 14.2655C13.968 14.3212 13.8829 14.3511 13.7953 14.3499C13.7341 14.3501 13.6737 14.3354 13.6195 14.3069C13.5627 14.2761 13.5144 14.2317 13.4789 14.1776L12.9711 13.4354C12.9402 13.3896 12.9003 13.3504 12.8539 13.3202C12.8106 13.2948 12.7611 13.2819 12.7109 13.2831H12.457V13.9843C12.4595 14.0316 12.4525 14.079 12.4364 14.1236C12.4203 14.1683 12.3955 14.2092 12.3633 14.244C12.3292 14.277 12.2888 14.3025 12.2444 14.319C12.2 14.3355 12.1527 14.3427 12.1055 14.3401C12.0578 14.3439 12.0098 14.3373 11.965 14.3207C11.9201 14.3042 11.8793 14.2781 11.8455 14.2443C11.8117 14.2104 11.7856 14.1697 11.769 14.1248C11.7525 14.0799 11.7458 14.032 11.7496 13.9843V11.8913C11.7445 11.8464 11.7496 11.801 11.7645 11.7583C11.7794 11.7157 11.8037 11.677 11.8357 11.645C11.8676 11.6131 11.9064 11.5888 11.949 11.574C11.9917 11.5591 12.0372 11.5541 12.082 11.5593H13.0629C13.3965 11.5593 13.6473 11.6315 13.8152 11.7761C13.9832 11.9206 14.0672 12.1297 14.0672 12.4034C14.073 12.5946 14.0123 12.7818 13.8953 12.9331C13.772 13.083 13.6008 13.1858 13.4105 13.2241C13.4911 13.2352 13.5681 13.2646 13.6355 13.3101C13.7095 13.3652 13.7736 13.4326 13.825 13.5093L14.0672 13.8573C14.1098 13.9153 14.1343 13.9846 14.1375 14.0565C14.1381 14.0969 14.1291 14.1369 14.1114 14.1732C14.0937 14.2095 14.0677 14.2411 14.0355 14.2655Z" fill="white"/>
<path d="M13.2924 12.179C13.2232 12.1282 13.1096 12.1028 12.9506 12.1028H12.4502V12.7434H12.9506C13.1096 12.7434 13.224 12.7188 13.2924 12.6692C13.3607 12.6196 13.3959 12.5391 13.3959 12.427C13.3959 12.3149 13.3615 12.2297 13.2924 12.179Z" fill="white"/>
<path d="M7.59844 12.179C7.52917 12.1282 7.4151 12.1028 7.25625 12.1028H6.75781V12.7434H7.25781C7.41693 12.7434 7.53099 12.7187 7.6 12.6692C7.66901 12.6197 7.70352 12.539 7.70352 12.427C7.70247 12.3127 7.66745 12.23 7.59844 12.179Z" fill="white"/>
<path d="M17.692 8.57344V4.66719H13.4178C13.3142 4.66719 13.2148 4.62603 13.1416 4.55278C13.0683 4.47952 13.0271 4.38016 13.0271 4.27656V0H2.69824C2.59464 0 2.49529 0.041155 2.42203 0.114411C2.34877 0.187668 2.30762 0.287025 2.30762 0.390625V8.57344H17.692Z" fill="white"/>
</g>
<defs>
<clipPath id="clip0_340_4921">
<rect width="20" height="20" fill="white"/>
</clipPath>
</defs>
</svg>
