<svg width="53" height="38" viewBox="0 0 53 38" fill="none" xmlns="http://www.w3.org/2000/svg">
<path d="M7.10955 10.1968C7.07483 7.63483 8.05288 5.16207 9.83237 3.31286C11.6446 1.37089 13.7915 0.399902 16.273 0.399902C18.8403 0.399902 20.945 1.34875 22.587 3.24646C24.229 5.14416 25.0485 7.46095 25.0455 10.1968C25.0455 15.4915 22.5655 20.7427 17.6055 25.9503C12.7329 31.0708 7.46267 34.954 1.79494 37.5999L0.600098 34.6869C8.03863 30.0106 12.4219 24.8037 13.75 19.0663C11.6254 18.6236 9.9871 17.5419 8.83519 15.8213C7.70265 14.1635 7.10098 12.2024 7.10955 10.1968ZM34.7375 10.1968C34.7046 7.63389 35.6851 5.16101 37.467 3.31286C39.2748 1.37089 41.4217 0.399902 43.9076 0.399902C46.3935 0.399902 48.4967 1.34875 50.2172 3.24646C51.9406 5.14564 52.7986 7.46243 52.7912 10.1968C52.7912 15.4059 50.312 20.6128 45.3534 25.8175C40.3949 31.0221 35.1262 34.9496 29.5473 37.5999L28.2148 34.6869C35.6518 30.0976 40.0795 24.8908 41.4979 19.0663C39.277 18.6236 37.5943 17.5419 36.4498 15.8213C35.322 14.162 34.725 12.201 34.7375 10.1968Z" fill="black"/>
</svg>
