<svg width="18" height="19" viewBox="0 0 18 19" fill="none" xmlns="http://www.w3.org/2000/svg">
<path d="M16.528 1.76728C15.597 0.690341 14.2923 0.0775797 12.9255 0.0753081C11.5576 0.0770118 10.2516 0.689449 9.31912 1.76659L9.00132 2.12797L8.68353 1.76659C6.83326 -0.376455 3.71897 -0.499526 1.72758 1.49164C1.63934 1.57991 1.55411 1.67159 1.47209 1.76659C-0.490696 4.04491 -0.490696 7.56596 1.47209 9.84428L8.5343 17.859C8.77863 18.1366 9.18579 18.1484 9.44373 17.8855C9.45218 17.8769 9.46039 17.8681 9.46838 17.859L16.528 9.84428C18.4907 7.5662 18.4907 4.04536 16.528 1.76728Z" fill="black"/>
</svg>
