<svg width="20" height="18" viewBox="0 0 20 18" fill="none" xmlns="http://www.w3.org/2000/svg">
<path d="M0.414753 8.85253C0.150017 9.10487 0 9.44764 0 9.80513C0 10.5474 0.633161 11.151 1.41193 11.151H2.35962L0.414753 8.85253ZM0.414753 8.85253L9.50183 0.197127L0.414753 8.85253ZM10.4923 0.204189L10.4923 0.204198L19.5793 8.8596C20.1268 9.38147 20.1268 10.2267 19.5815 10.7486L19.5815 10.7486C19.3187 11.0012 18.9615 11.1412 18.5889 11.1412H17.6314V11.151H17.6217V17.3271C17.6217 17.6935 17.311 17.9902 16.9255 17.9902H11.0691V13.2896H11.0594V13.2798H8.58849V13.2896H8.57872V17.9902H3.07535C2.68981 17.9902 2.37916 17.6935 2.37916 17.3271V11.151H2.36939V11.1412H1.41193C0.638108 11.1412 0.00976562 10.5416 0.00976562 9.80513C0.00976562 9.4504 0.158622 9.11016 0.421489 8.8596L9.50856 0.204198L9.50857 0.204189C9.57307 0.142585 9.64971 0.0936883 9.73412 0.0603181C9.81852 0.0269477 9.90901 0.00976562 10.0004 0.00976562C10.0918 0.00976562 10.1823 0.0269477 10.2667 0.0603181C10.3511 0.0936883 10.4278 0.142585 10.4923 0.204189Z" fill="black" stroke="black" stroke-width="0.0195312"/>
</svg>
