<svg width="134" height="23" viewBox="0 0 134 23" fill="none" xmlns="http://www.w3.org/2000/svg">
<path d="M0.929688 22V0.583984H3.41992V19.7734H12.9268V22H0.929688ZM15.7035 22V0.583984H18.1938V22H15.7035ZM32.3377 10.7793H39.823V21.165C38.7 21.5459 37.5428 21.8291 36.3514 22.0146C35.1697 22.2002 33.8465 22.293 32.3816 22.293C30.1551 22.293 28.2752 21.8486 26.742 20.96C25.2186 20.0713 24.0613 18.8066 23.2703 17.166C22.4793 15.5156 22.0838 13.5576 22.0838 11.292C22.0838 9.0752 22.5184 7.1416 23.3875 5.49121C24.2664 3.84082 25.5311 2.56152 27.1814 1.65332C28.8416 0.735352 30.8338 0.276367 33.158 0.276367C34.3494 0.276367 35.4773 0.388672 36.5418 0.613281C37.616 0.828125 38.6121 1.13574 39.5301 1.53613L38.5779 3.7041C37.7869 3.3623 36.9129 3.06934 35.9559 2.8252C35.0086 2.58105 34.0271 2.45898 33.0115 2.45898C31.2635 2.45898 29.7645 2.82031 28.5145 3.54297C27.2742 4.26562 26.3221 5.28613 25.658 6.60449C25.0037 7.92285 24.6766 9.48535 24.6766 11.292C24.6766 13.0791 24.9646 14.6367 25.5408 15.9648C26.117 17.2832 27.0154 18.3086 28.2361 19.041C29.4568 19.7734 31.0291 20.1396 32.9529 20.1396C33.9197 20.1396 34.7498 20.0859 35.4432 19.9785C36.1365 19.8613 36.7664 19.7246 37.3328 19.5684V13.0059H32.3377V10.7793ZM60.3391 22H57.8488V11.9072H46.5988V22H44.1086V0.583984H46.5988V9.70996H57.8488V0.583984H60.3391V22ZM71.9049 22H69.4V2.78125H62.6617V0.583984H78.6139V2.78125H71.9049V22ZM99.5254 11.2627C99.5254 12.9131 99.3154 14.417 98.8955 15.7744C98.4756 17.1221 97.8506 18.2842 97.0205 19.2607C96.2002 20.2275 95.1797 20.9746 93.959 21.502C92.7383 22.0293 91.3223 22.293 89.7109 22.293C88.0508 22.293 86.6006 22.0293 85.3604 21.502C84.1299 20.9746 83.1045 20.2227 82.2842 19.2461C81.4736 18.2695 80.8633 17.1025 80.4531 15.7451C80.0527 14.3877 79.8525 12.8838 79.8525 11.2334C79.8525 9.0459 80.2139 7.12695 80.9365 5.47656C81.6592 3.82617 82.7529 2.54199 84.2178 1.62402C85.6924 0.706055 87.5381 0.24707 89.7549 0.24707C91.874 0.24707 93.6562 0.701172 95.1016 1.60938C96.5566 2.51758 97.6553 3.79687 98.3975 5.44727C99.1494 7.08789 99.5254 9.02637 99.5254 11.2627ZM82.4746 11.2627C82.4746 13.0791 82.7334 14.6514 83.251 15.9795C83.7686 17.3076 84.5596 18.333 85.624 19.0557C86.6982 19.7783 88.0605 20.1396 89.7109 20.1396C91.3711 20.1396 92.7285 19.7783 93.7832 19.0557C94.8477 18.333 95.6338 17.3076 96.1416 15.9795C96.6494 14.6514 96.9033 13.0791 96.9033 11.2627C96.9033 8.49902 96.3223 6.34082 95.1602 4.78809C94.0078 3.22559 92.2061 2.44434 89.7549 2.44434C88.0947 2.44434 86.7275 2.80078 85.6533 3.51367C84.5791 4.22656 83.7783 5.24219 83.251 6.56055C82.7334 7.86914 82.4746 9.43652 82.4746 11.2627ZM108.996 0.583984C111.76 0.583984 113.777 1.12598 115.046 2.20996C116.326 3.28418 116.965 4.82715 116.965 6.83887C116.965 7.74707 116.814 8.61133 116.511 9.43164C116.218 10.2422 115.74 10.96 115.076 11.585C114.412 12.2002 113.537 12.6885 112.454 13.0498C111.379 13.4014 110.061 13.5771 108.498 13.5771H105.891V22H103.401V0.583984H108.996ZM108.762 2.70801H105.891V11.4385H108.22C109.587 11.4385 110.725 11.292 111.633 10.999C112.551 10.7061 113.24 10.2324 113.699 9.57812C114.158 8.91406 114.387 8.03516 114.387 6.94141C114.387 5.51562 113.933 4.45605 113.025 3.7627C112.117 3.05957 110.696 2.70801 108.762 2.70801ZM127.125 22H124.62V2.78125H117.882V0.583984H133.834V2.78125H127.125V22Z" fill="black"/>
</svg>
