<svg width="20" height="20" viewBox="0 0 20 20" fill="none" xmlns="http://www.w3.org/2000/svg">
<path d="M10 1C8.21997 1 6.47991 1.52784 4.99987 2.51677C3.51983 3.50571 2.36628 4.91131 1.68509 6.55585C1.0039 8.20038 0.82567 10.01 1.17294 11.7558C1.5202 13.5016 2.37737 15.1053 3.63604 16.364C4.89472 17.6226 6.49836 18.4798 8.24419 18.8271C9.99002 19.1743 11.7996 18.9961 13.4442 18.3149C15.0887 17.6337 16.4943 16.4802 17.4832 15.0001C18.4722 13.5201 19 11.78 19 10C19 7.61305 18.0518 5.32387 16.364 3.63604C14.6761 1.94821 12.387 1 10 1V1Z" fill="black"/>
<path d="M10.1729 10.3824C11.6592 10.3824 12.8641 9.17754 12.8641 7.69122C12.8641 6.2049 11.6592 5 10.1729 5C8.68659 5 7.48169 6.2049 7.48169 7.69122C7.48169 9.17754 8.68659 10.3824 10.1729 10.3824Z" fill="white"/>
<path d="M7.00864 12.4376C6.35652 12.4383 5.72677 12.6754 5.23608 13.1049C5.77112 13.9267 6.50284 14.6019 7.36489 15.0694C8.22693 15.5368 9.19203 15.7816 10.1726 15.7816C11.1532 15.7816 12.1183 15.5368 12.9804 15.0694C13.8424 14.6019 14.5742 13.9267 15.1092 13.1049C14.6185 12.6754 13.9888 12.4383 13.3366 12.4376H7.00864Z" fill="white"/>
</svg>
