<svg width="30" height="30" viewBox="0 0 30 30" fill="none" xmlns="http://www.w3.org/2000/svg">
<path d="M23.4211 19.3529C23.8265 19.3531 24.2164 19.484 24.5099 19.7186C24.8033 19.9532 24.9779 20.2734 24.9974 20.6129C25.0169 20.9524 24.8798 21.2851 24.6146 21.5422C24.3493 21.7993 23.9762 21.961 23.5726 21.9938L23.4211 22H6.57895C6.17346 21.9998 5.78358 21.8689 5.49012 21.6343C5.19665 21.3998 5.02209 21.0796 5.00261 20.7401C4.98312 20.4006 5.1202 20.0678 5.38545 19.8107C5.65069 19.5536 6.02377 19.3919 6.42737 19.3591L6.57895 19.3529H23.4211ZM23.4211 13.1765C23.8398 13.1765 24.2414 13.3159 24.5375 13.5641C24.8336 13.8123 25 14.149 25 14.5C25 14.851 24.8336 15.1877 24.5375 15.4359C24.2414 15.6841 23.8398 15.8235 23.4211 15.8235H6.57895C6.16018 15.8235 5.75857 15.6841 5.46246 15.4359C5.16635 15.1877 5 14.851 5 14.5C5 14.149 5.16635 13.8123 5.46246 13.5641C5.75857 13.3159 6.16018 13.1765 6.57895 13.1765H23.4211ZM23.4211 7C23.8398 7 24.2414 7.13944 24.5375 7.38765C24.8336 7.63586 25 7.97251 25 8.32353C25 8.67455 24.8336 9.0112 24.5375 9.25941C24.2414 9.50762 23.8398 9.64706 23.4211 9.64706H6.57895C6.16018 9.64706 5.75857 9.50762 5.46246 9.25941C5.16635 9.0112 5 8.67455 5 8.32353C5 7.97251 5.16635 7.63586 5.46246 7.38765C5.75857 7.13944 6.16018 7 6.57895 7H23.4211Z" fill="black"/>
</svg>
