<svg width="18" height="18" viewBox="0 0 18 18" fill="none" xmlns="http://www.w3.org/2000/svg">
<path d="M12.8475 15.525L15.975 12.42L15.03 11.475L12.8475 13.6125L11.97 12.735L11.025 13.7025L12.8475 15.525ZM2.7 5.4H13.5V3.6H2.7V5.4ZM13.5 18C12.255 18 11.1939 17.5611 10.3167 16.6833C9.4395 15.8055 9.0006 14.7444 9 13.5C8.9994 12.2556 9.4383 11.1945 10.3167 10.3167C11.1951 9.4389 12.2562 9 13.5 9C14.7438 9 15.8052 9.4389 16.6842 10.3167C17.5632 11.1945 18.0018 12.2556 18 13.5C17.9982 14.7444 17.5593 15.8058 16.6833 16.6842C15.8073 17.5626 14.7462 18.0012 13.5 18ZM0 17.1V0H16.2V7.8075C15.78 7.5975 15.3411 7.4436 14.8833 7.3458C14.4255 7.248 13.9644 7.1994 13.5 7.2H2.7V9H9.09C8.835 9.255 8.5989 9.5325 8.3817 9.8325C8.1645 10.1325 7.9731 10.455 7.8075 10.8H2.7V12.6H7.2675C7.2375 12.75 7.2189 12.8964 7.2117 13.0392C7.2045 13.182 7.2006 13.3356 7.2 13.5C7.2 14.13 7.2864 14.7339 7.4592 15.3117C7.632 15.8895 7.8906 16.4406 8.235 16.965L8.1 17.1L6.75 15.75L5.4 17.1L4.05 15.75L2.7 17.1L1.35 15.75L0 17.1Z" fill="black"/>
</svg>
