<svg width="12" height="11" viewBox="0 0 12 11" fill="none" xmlns="http://www.w3.org/2000/svg">
<path d="M0.659599 6.35895L5.10973 10.809C5.21265 10.912 5.35005 10.9687 5.49655 10.9687C5.64305 10.9687 5.78045 10.912 5.88338 10.809L6.2111 10.4814C6.42435 10.2679 6.42435 9.92087 6.2111 9.7077L2.47422 5.97082L6.21525 2.2298C6.31817 2.12679 6.375 1.98947 6.375 1.84305C6.375 1.69647 6.31817 1.55915 6.21525 1.45606L5.88752 1.1285C5.78452 1.0255 5.6472 0.96875 5.5007 0.96875C5.3542 0.96875 5.2168 1.0255 5.11387 1.1285L0.659599 5.58261C0.556429 5.68595 0.499763 5.82391 0.500088 5.97058C0.499763 6.11781 0.556429 6.2557 0.659599 6.35895Z" fill="black"/>
<path d="M5.3283 6.35895L9.77843 10.809C9.88135 10.912 10.0188 10.9687 10.1653 10.9687C10.3118 10.9687 10.4492 10.912 10.5521 10.809L10.8798 10.4814C11.0931 10.2679 11.0931 9.92087 10.8798 9.7077L7.14292 5.97082L10.8839 2.2298C10.9869 2.12679 11.0437 1.98947 11.0437 1.84305C11.0437 1.69647 10.9869 1.55915 10.8839 1.45606L10.5562 1.1285C10.4532 1.0255 10.3159 0.96875 10.1694 0.96875C10.0229 0.96875 9.8855 1.0255 9.78257 1.1285L5.3283 5.58261C5.22513 5.68595 5.16846 5.82391 5.16879 5.97058C5.16846 6.11781 5.22513 6.2557 5.3283 6.35895Z" fill="black"/>
</svg>
