<svg width="12" height="11" viewBox="0 0 12 11" fill="none" xmlns="http://www.w3.org/2000/svg">
<path d="M10.8841 5.57855L6.43398 1.1285C6.33105 1.0255 6.19365 0.96875 6.04715 0.96875C5.90065 0.96875 5.76325 1.0255 5.66032 1.1285L5.3326 1.45614C5.11935 1.66964 5.11935 2.01663 5.3326 2.2298L9.06948 5.96668L5.32846 9.7077C5.22553 9.81071 5.1687 9.94803 5.1687 10.0944C5.1687 10.241 5.22553 10.3783 5.32846 10.4814L5.65618 10.809C5.75918 10.912 5.8965 10.9688 6.043 10.9688C6.18951 10.9688 6.3269 10.912 6.42983 10.809L10.8841 6.35489C10.9873 6.25155 11.0439 6.11359 11.0436 5.96692C11.0439 5.81969 10.9873 5.6818 10.8841 5.57855Z" fill="black"/>
<path d="M6.2154 5.57855L1.76527 1.1285C1.66235 1.0255 1.52495 0.96875 1.37845 0.96875C1.23195 0.96875 1.09455 1.0255 0.991622 1.1285L0.663901 1.45614C0.450651 1.66964 0.450651 2.01663 0.663901 2.2298L4.40078 5.96668L0.659754 9.7077C0.556828 9.81071 0.5 9.94803 0.5 10.0944C0.5 10.241 0.556828 10.3783 0.659754 10.4814L0.987475 10.809C1.09048 10.912 1.2278 10.9688 1.3743 10.9688C1.5208 10.9688 1.6582 10.912 1.76113 10.809L6.2154 6.35489C6.31857 6.25155 6.37524 6.11359 6.37491 5.96692C6.37524 5.81969 6.31857 5.6818 6.2154 5.57855Z" fill="black"/>
</svg>
