<svg width="20" height="20" viewBox="0 0 20 20" fill="none" xmlns="http://www.w3.org/2000/svg">
<g clip-path="url(#clip0_382_5228)">
<path d="M13.8086 0.228912V3.8836H17.4629L13.8086 0.228912Z" fill="white"/>
<path d="M2.30762 19.6094C2.30762 19.713 2.34877 19.8123 2.42203 19.8856C2.49529 19.9588 2.59464 20 2.69824 20H17.3014C17.405 20 17.5043 19.9588 17.5776 19.8856C17.6508 19.8123 17.692 19.713 17.692 19.6094V16.916H2.30762V19.6094Z" fill="white"/>
<path d="M7.55703 12.1027H7.04102V12.7789H7.55703C7.68984 12.7789 7.78828 12.7512 7.85195 12.6965C7.91563 12.6418 7.94766 12.5574 7.94766 12.4426C7.94766 12.216 7.81745 12.1027 7.55703 12.1027Z" fill="white"/>
<path d="M18.4422 9.36288H1.55859C1.45499 9.36288 1.35564 9.40404 1.28238 9.4773C1.20912 9.55055 1.16797 9.64991 1.16797 9.75351V15.7422C1.16797 15.8458 1.20912 15.9451 1.28238 16.0184C1.35564 16.0917 1.45499 16.1328 1.55859 16.1328H18.4422C18.5458 16.1328 18.6451 16.0917 18.7184 16.0184C18.7917 15.9451 18.8328 15.8458 18.8328 15.7422V9.75351C18.8328 9.64991 18.7917 9.55055 18.7184 9.4773C18.6451 9.40404 18.5458 9.36288 18.4422 9.36288ZM8.36406 13.0836C8.19323 13.2398 7.95677 13.318 7.65469 13.318H7.0418V13.982C7.0443 14.0297 7.03692 14.0774 7.02011 14.1221C7.00331 14.1668 6.97744 14.2076 6.94414 14.2418C6.90854 14.2748 6.86669 14.3002 6.82106 14.3167C6.77544 14.3332 6.72697 14.3404 6.67852 14.3379C6.63083 14.3416 6.58289 14.335 6.53801 14.3185C6.49312 14.3019 6.45236 14.2758 6.41854 14.242C6.38471 14.2082 6.35862 14.1674 6.34207 14.1225C6.32552 14.0777 6.31889 14.0297 6.32266 13.982V11.8914C6.31754 11.8465 6.32262 11.8011 6.33752 11.7584C6.35242 11.7158 6.37676 11.6771 6.40872 11.6451C6.44067 11.6132 6.47943 11.5889 6.52209 11.5741C6.56474 11.5592 6.61021 11.5542 6.65508 11.5594H7.65664C7.96133 11.5594 8.19844 11.6368 8.36797 11.7918C8.5375 11.9467 8.62214 12.1624 8.62188 12.4387C8.62109 12.7121 8.53542 12.9271 8.36484 13.0836H8.36406ZM11.3852 13.6758C11.2699 13.8821 11.0938 14.0479 10.8809 14.1504C10.6605 14.2598 10.3967 14.3146 10.0895 14.3148H9.30078C9.25592 14.3199 9.2105 14.3147 9.16789 14.2998C9.12528 14.2849 9.08659 14.2606 9.05469 14.2286C9.02278 14.1967 8.99849 14.1579 8.98361 14.1153C8.96873 14.0727 8.96365 14.0273 8.96875 13.9824V11.8914C8.96364 11.8466 8.96872 11.8011 8.98359 11.7585C8.99847 11.7159 9.02278 11.6772 9.05469 11.6453C9.0866 11.6134 9.12531 11.5891 9.16791 11.5742C9.21052 11.5593 9.25594 11.5543 9.30078 11.5594H10.0902C10.3949 11.5594 10.6574 11.6147 10.8777 11.7254C11.091 11.8289 11.2681 11.9945 11.3855 12.2004C11.5027 12.4064 11.5613 12.6513 11.5613 12.9352C11.5613 13.219 11.5029 13.4659 11.3859 13.6758H11.3852ZM13.8902 12.0559C13.8344 12.1 13.7488 12.1223 13.6344 12.1223H12.6957V12.6301H13.5551C13.6697 12.6301 13.7549 12.6535 13.8109 12.7004C13.8669 12.7473 13.8949 12.819 13.8949 12.9156C13.8949 13.0122 13.8669 13.0825 13.8109 13.1266C13.7549 13.1706 13.6697 13.1927 13.5551 13.193H12.6957V13.9844C12.6982 14.0319 12.6909 14.0794 12.6745 14.1241C12.658 14.1687 12.6327 14.2096 12.6 14.2441C12.5499 14.2955 12.4855 14.3306 12.4151 14.3447C12.3448 14.3588 12.2718 14.3513 12.2058 14.3232C12.1398 14.2952 12.0838 14.2478 12.0452 14.1873C12.0066 14.1268 11.9872 14.0561 11.9895 13.9844V11.8914C11.9844 11.8465 11.9895 11.8011 12.0045 11.7585C12.0194 11.7159 12.0437 11.6772 12.0757 11.6453C12.1076 11.6134 12.1463 11.5891 12.189 11.5742C12.2316 11.5594 12.277 11.5543 12.3219 11.5594H13.6352C13.7523 11.5594 13.8383 11.5822 13.893 11.6277C13.9477 11.6733 13.975 11.7456 13.975 11.8445C13.975 11.9409 13.947 12.0113 13.891 12.0559H13.8902Z" fill="white"/>
<path d="M10.0391 12.1379H9.6875V13.7363H10.0391C10.3076 13.7363 10.5089 13.6704 10.643 13.5387C10.7771 13.4069 10.8441 13.2057 10.8441 12.9351C10.8441 12.6641 10.7771 12.4634 10.643 12.3332C10.5089 12.203 10.3076 12.1379 10.0391 12.1379Z" fill="white"/>
<path d="M17.692 8.57344V4.66719H13.4178C13.3142 4.66719 13.2148 4.62603 13.1416 4.55278C13.0683 4.47952 13.0271 4.38016 13.0271 4.27656V0H2.69824C2.59464 0 2.49529 0.041155 2.42203 0.114411C2.34877 0.187668 2.30762 0.287025 2.30762 0.390625V8.57344H17.692Z" fill="white"/>
</g>
<defs>
<clipPath id="clip0_382_5228">
<rect width="20" height="20" fill="white"/>
</clipPath>
</defs>
</svg>
