<svg width="18" height="18" viewBox="0 0 18 18" fill="none" xmlns="http://www.w3.org/2000/svg">
<path d="M14.6837 11.9012C14.2257 11.9009 13.7727 11.988 13.3532 12.1569C12.9338 12.3259 12.5571 12.573 12.2468 12.8826L6.48848 9.86579C6.68095 9.29481 6.68771 8.68457 6.50793 8.1101L12.2465 5.10135C12.7938 5.6443 13.538 5.98485 14.3393 6.059C15.1406 6.13315 15.9437 5.9358 16.5978 5.50404C17.252 5.07227 17.712 4.43582 17.8916 3.71426C18.0711 2.9927 17.9578 2.23571 17.5729 1.58554C17.188 0.935368 16.558 0.436768 15.8013 0.18343C15.0446 -0.0699088 14.2133 -0.0605459 13.4636 0.209759C12.7139 0.480064 12.0974 0.992703 11.73 1.65135C11.3625 2.30999 11.2694 3.06931 11.4681 3.7866C9.57359 4.77994 7.66685 5.77923 5.7601 6.78379C5.73464 6.79835 5.70623 6.80801 5.67658 6.81218C5.21881 6.38678 4.635 6.09456 3.99785 5.97191C3.3607 5.84925 2.69837 5.90159 2.09335 6.1224C1.48833 6.3432 0.967349 6.72272 0.595291 7.21369C0.223233 7.70466 0.0165393 8.28538 0.000951621 8.88354C-0.0146361 9.48169 0.161571 10.0708 0.507628 10.5776C0.853685 11.0844 1.3543 11.4864 1.94713 11.7336C2.53995 11.9808 3.1988 12.0622 3.8416 11.9677C4.48441 11.8732 5.08277 11.607 5.56218 11.2023C5.59348 11.1818 5.62158 11.1575 5.6457 11.1301C5.6457 11.1301 5.7437 11.1925 5.79366 11.2187C7.6821 12.2133 9.57283 13.2043 11.4658 14.1917H11.4689C11.2968 14.8075 11.3383 15.4573 11.5878 16.0503C11.8372 16.6433 12.2821 17.1498 12.8601 17.4989C13.4382 17.8481 14.1205 18.0225 14.8116 17.9977C15.5028 17.9729 16.1683 17.7502 16.715 17.3606C17.2616 16.9711 17.6622 16.4343 17.8606 15.8253C18.059 15.2162 18.0453 14.5654 17.8215 13.9639C17.5977 13.3623 17.1749 12.8401 16.6123 12.4703C16.0497 12.1004 15.3754 11.9015 14.6837 11.9012Z" fill="black"/>
</svg>
