<svg width="20" height="20" viewBox="0 0 20 20" fill="none" xmlns="http://www.w3.org/2000/svg">
<path d="M18.7143 16.4286H1.28571C0.575634 16.4286 0 17.0042 0 17.7143C0 18.4244 0.575635 19 1.28572 19H18.7143C19.4244 19 20 18.4244 20 17.7143C20 17.0042 19.4244 16.4286 18.7143 16.4286Z" fill="black"/>
<path d="M9.71429 11.2858H1.28571C0.575634 11.2858 0 11.8614 0 12.5715C0 13.2816 0.575634 13.8572 1.28571 13.8572H9.71429C10.4244 13.8572 11 13.2816 11 12.5715C11 11.8614 10.4244 11.2858 9.71429 11.2858Z" fill="black"/>
<path d="M3.71429 1H1.28571C0.575634 1 0 1.57563 0 2.28571C0 2.99579 0.575634 3.57143 1.28571 3.57143H3.71429C4.42437 3.57143 5 2.99579 5 2.28571C5 1.57563 4.42437 1 3.71429 1Z" fill="black"/>
<path d="M6.71429 6.14282H1.28571C0.575634 6.14282 0 6.71846 0 7.42854C0 8.13862 0.575634 8.71425 1.28571 8.71425H6.71429C7.42437 8.71425 8 8.13862 8 7.42854C8 6.71846 7.42437 6.14282 6.71429 6.14282Z" fill="black"/>
<path d="M11.1737 8.05106L15.0801 12.1339C15.1915 12.2504 15.3402 12.3143 15.5019 12.3143C15.6604 12.3143 15.8089 12.2504 15.9204 12.1339L19.8269 8.05106C20.0577 7.80978 20.0577 7.41709 19.8269 7.17599L19.4722 6.80511C19.3608 6.68874 19.2122 6.62472 19.0536 6.62472C18.8951 6.62472 18.7413 6.68874 18.63 6.80511L16.3459 9.18718L16.3459 1.6194C16.3459 1.27831 16.0903 1.00005 15.764 1.00005L15.2623 1.00005C14.936 1.00005 14.6545 1.27831 14.6545 1.6194L14.6545 9.21404L12.3575 6.80511C12.2462 6.68874 12.1015 6.62472 11.9429 6.62472C11.7843 6.62472 11.6378 6.68874 11.5263 6.80511L11.1727 7.17599C10.9418 7.41718 10.9427 7.80978 11.1737 8.05106Z" fill="black"/>
</svg>
