<svg width="34" height="34" viewBox="0 0 34 34" fill="none" xmlns="http://www.w3.org/2000/svg">
<path fill-rule="evenodd" clip-rule="evenodd" d="M10.6225 1.60188C12.6446 0.764209 14.8119 0.333156 17.0007 0.333328C19.1894 0.333328 21.3567 0.764553 23.3788 1.60238C25.4009 2.4402 27.2382 3.66822 28.7858 5.21631C30.3334 6.7644 31.561 8.60223 32.3984 10.6249C33.2359 12.6475 33.6668 14.8154 33.6667 17.0046C33.6663 21.4235 31.9112 25.6614 28.7872 28.7861C25.6633 31.9107 21.4265 33.6663 17.0085 33.6667H16.9915C12.5733 33.6663 8.33628 31.9106 5.21232 28.7856C2.08835 25.6607 0.333344 21.4225 0.333344 17.0033C0.333344 14.814 0.764466 12.6462 1.60209 10.6237C2.43972 8.60108 3.66745 6.76334 5.21517 5.21538C6.76289 3.66741 8.60029 2.43954 10.6225 1.60188ZM8.01158 16.0855L23.7317 10.1038C24.4531 9.77479 25.1014 10.1051 24.8327 11.2181L22.2642 23.9864C22.0764 24.8909 21.5324 25.1085 20.7784 24.6903L16.6811 21.6477C15.7184 22.5876 15.1092 23.1815 14.71 23.559C14.3683 23.8631 14.2313 23.9824 13.913 23.9785C13.5947 23.9746 13.4447 23.7832 13.2608 23.2745L11.7541 18.6313L7.81591 17.3964C7.17933 17.188 7.15194 16.3346 8.01158 16.0855ZM21.3276 12.6994L12.3724 18.3455L13.8908 23.0333L14.2717 19.68L21.7072 12.9616C21.9068 12.7335 21.7685 12.4018 21.3276 12.6994Z" fill="white"/>
</svg>
