<svg width="34" height="34" viewBox="0 0 34 34" fill="none" xmlns="http://www.w3.org/2000/svg">
<path fill-rule="evenodd" clip-rule="evenodd" d="M17.0086 33.6668H16.9915C12.5736 33.6664 8.33677 31.9112 5.21284 28.7873C2.08891 25.6634 0.333753 21.4265 0.333405 17.0086V16.9994C0.333405 14.8107 0.764527 12.6434 1.60215 10.6213C2.43978 8.59922 3.66751 6.76192 5.21523 5.21432C6.76295 3.66672 8.60035 2.43914 10.6225 1.60167C12.6447 0.764199 14.812 0.333247 17.0007 0.33342C21.4208 0.33342 25.6599 2.0893 28.7854 5.21478C31.9109 8.34026 33.6667 12.5793 33.6667 16.9994V17.0086C33.6664 21.4265 31.9112 25.6634 28.7873 28.7873C25.6634 31.9112 21.4265 33.6664 17.0086 33.6668ZM17.643 23.5622H16.3793V23.5675C16.3793 23.5675 13.5918 23.7356 11.1366 21.1793C8.45811 18.3905 6.09358 12.8588 6.09358 12.8588C6.09358 12.8588 5.95828 12.4962 6.1054 12.3202C6.27223 12.1232 6.72544 12.11 6.72544 12.11L9.74678 12.0916C9.92085 12.1238 10.0866 12.1908 10.2341 12.2887C10.3483 12.3842 10.4383 12.5053 10.4969 12.6421C10.8236 13.4495 11.2023 14.2349 11.6305 14.9935C12.8929 17.1741 13.4801 17.6509 13.9084 17.4171C14.5336 17.0769 14.3458 14.3353 14.3458 14.3353C14.3458 14.3353 14.3576 13.333 14.0318 12.8903C13.7796 12.5501 13.3041 12.4463 13.0939 12.4187C12.9231 12.3977 13.2069 12.0023 13.5642 11.8302C14.108 11.5596 15.067 11.5491 16.202 11.5596C17.0847 11.5688 17.3396 11.624 17.685 11.7081C18.4871 11.8982 18.4621 12.5174 18.4082 13.8554C18.3921 14.2551 18.3734 14.7191 18.3734 15.2549C18.3734 15.3761 18.3698 15.5053 18.3661 15.6381C18.3472 16.3231 18.3256 17.1058 18.7767 17.3974C19.0079 17.5419 19.574 17.4197 20.9862 15.0184C21.4389 14.2226 21.8314 13.394 22.1606 12.5396C22.2243 12.4045 22.321 12.2875 22.4417 12.1994C22.5681 12.1351 22.7108 12.1099 22.8515 12.1271L26.0305 12.1061C26.0305 12.1061 26.9855 11.9931 27.1392 12.424C27.3021 12.8772 26.7832 13.9334 25.4841 15.6634C24.251 17.3075 23.6515 17.9115 23.7078 18.4465C23.7489 18.8365 24.1384 19.1899 24.885 19.8828C26.4529 21.3363 26.8697 22.0983 26.9688 22.2793C26.9767 22.2938 26.9826 22.3046 26.9868 22.3117C27.687 23.4716 26.2105 23.5636 26.2105 23.5636L23.3875 23.603C23.3875 23.603 22.7806 23.7225 21.9819 23.1747C21.5662 22.8884 21.1613 22.4218 20.7751 21.9767C20.1813 21.2924 19.6317 20.659 19.155 20.8102C18.3681 21.0598 18.3931 22.7557 18.3931 22.7557C18.3931 22.7557 18.4154 23.0998 18.2197 23.31C18.024 23.5202 17.643 23.5622 17.643 23.5622Z" fill="white"/>
</svg>
