<svg width="20" height="20" viewBox="0 0 20 20" fill="none" xmlns="http://www.w3.org/2000/svg">
<g clip-path="url(#clip0_382_5306)">
<path d="M13.8086 0.228912V3.8836H17.4629L13.8086 0.228912Z" fill="white"/>
<path d="M2.30762 19.6094C2.30762 19.713 2.34877 19.8123 2.42203 19.8856C2.49529 19.9588 2.59464 20 2.69824 20H17.3014C17.405 20 17.5043 19.9588 17.5776 19.8856C17.6508 19.8123 17.692 19.713 17.692 19.6094V16.916H2.30762V19.6094Z" fill="white"/>
<path d="M18.4422 9.36288H1.55859C1.45499 9.36288 1.35564 9.40404 1.28238 9.4773C1.20912 9.55055 1.16797 9.64991 1.16797 9.75351V15.7422C1.16797 15.8458 1.20912 15.9451 1.28238 16.0184C1.35564 16.0917 1.45499 16.1328 1.55859 16.1328H18.4422C18.5458 16.1328 18.6451 16.0917 18.7184 16.0184C18.7917 15.9451 18.8328 15.8458 18.8328 15.7422V9.75351C18.8328 9.64991 18.7917 9.55055 18.7184 9.4773C18.6451 9.40404 18.5458 9.36288 18.4422 9.36288ZM9.16406 14.2457C9.10938 14.2915 9.02344 14.3144 8.90625 14.3144H7.34414C7.30216 14.3166 7.2602 14.31 7.22088 14.2951C7.18156 14.2803 7.14573 14.2575 7.11562 14.2281C7.08793 14.1998 7.06622 14.1661 7.05179 14.1292C7.03736 14.0923 7.03051 14.0529 7.03164 14.0133C7.03377 13.9212 7.06525 13.8323 7.12148 13.7594L8.32539 12.1219H7.37812C7.26094 12.1219 7.17422 12.0988 7.11797 12.0535C7.08885 12.0274 7.06614 11.9949 7.05157 11.9586C7.03701 11.9223 7.03099 11.8831 7.03398 11.8441C7.03398 11.7452 7.06198 11.6729 7.11797 11.6273C7.17422 11.5816 7.26055 11.559 7.37812 11.559H8.87891C8.92008 11.557 8.96122 11.5635 8.99983 11.5779C9.03844 11.5923 9.07372 11.6145 9.10352 11.643C9.13125 11.6709 9.153 11.7042 9.16744 11.7408C9.18188 11.7774 9.18871 11.8165 9.1875 11.8559C9.18579 11.9493 9.15432 12.0397 9.09766 12.1141L7.89375 13.7516H8.90664C9.02096 13.7516 9.10625 13.7737 9.1625 13.818C9.21875 13.8622 9.24675 13.9325 9.24648 14.0289C9.24622 14.1294 9.21875 14.2018 9.16406 14.2461V14.2457ZM10.2777 13.9844C10.2802 14.0321 10.2729 14.0798 10.256 14.1245C10.2392 14.1692 10.2134 14.2099 10.1801 14.2441C10.1445 14.2771 10.1027 14.3026 10.057 14.3191C10.0114 14.3357 9.96291 14.3428 9.91445 14.3402C9.86676 14.344 9.81883 14.3374 9.77394 14.3208C9.72906 14.3043 9.6883 14.2782 9.65448 14.2443C9.62065 14.2105 9.59456 14.1698 9.57801 14.1249C9.56145 14.08 9.55483 14.0321 9.55859 13.9844V11.8914C9.5564 11.8445 9.56375 11.7976 9.5802 11.7537C9.59665 11.7097 9.62186 11.6695 9.6543 11.6355C9.68891 11.6028 9.72982 11.5774 9.77454 11.561C9.81927 11.5445 9.86687 11.5373 9.91445 11.5398C9.96287 11.5373 10.0113 11.5444 10.0569 11.5609C10.1025 11.5773 10.1444 11.6027 10.1801 11.6355C10.2131 11.6692 10.2388 11.7092 10.2556 11.7533C10.2724 11.7973 10.28 11.8443 10.2777 11.8914V13.9844ZM12.8203 13.0859C12.6495 13.2422 12.413 13.3203 12.1109 13.3203H11.4973V13.9844C11.4997 14.0321 11.4922 14.0797 11.4754 14.1244C11.4586 14.1691 11.4328 14.2098 11.3996 14.2441C11.3639 14.2771 11.322 14.3026 11.2763 14.3191C11.2306 14.3356 11.1821 14.3428 11.1336 14.3402C11.0859 14.3439 11.038 14.3373 10.9932 14.3207C10.9484 14.3041 10.9077 14.278 10.8739 14.2442C10.8401 14.2104 10.814 14.1696 10.7975 14.1248C10.781 14.0799 10.7744 14.032 10.7781 13.9844V11.8914C10.773 11.8466 10.7781 11.8011 10.793 11.7585C10.8078 11.7159 10.8322 11.6772 10.8641 11.6453C10.896 11.6134 10.9347 11.5891 10.9773 11.5742C11.0199 11.5593 11.0653 11.5543 11.1102 11.5594H12.1098C12.4145 11.5594 12.6516 11.6368 12.8211 11.7918C12.9906 11.9467 13.0753 12.1624 13.075 12.4387C13.0758 12.7121 12.9909 12.9271 12.8203 13.0836V13.0859Z" fill="white"/>
<path d="M12.0131 12.1027H11.4971V12.7789H12.0131C12.1459 12.7789 12.2439 12.7512 12.308 12.6965C12.3721 12.6418 12.4037 12.5574 12.4037 12.4426C12.4037 12.216 12.2735 12.1027 12.0131 12.1027Z" fill="white"/>
<path d="M17.692 8.57344V4.66719H13.4178C13.3142 4.66719 13.2148 4.62603 13.1416 4.55278C13.0683 4.47952 13.0271 4.38016 13.0271 4.27656V0H2.69824C2.59464 0 2.49529 0.041155 2.42203 0.114411C2.34877 0.187668 2.30762 0.287025 2.30762 0.390625V8.57344H17.692Z" fill="white"/>
</g>
<defs>
<clipPath id="clip0_382_5306">
<rect width="20" height="20" fill="white"/>
</clipPath>
</defs>
</svg>
